<?xml version="1.0" standalone="no"?><!DOCTYPE svg PUBLIC "-//W3C//DTD SVG 1.1//EN"
        "http://www.w3.org/Graphics/SVG/1.1/DTD/svg11.dtd">
<svg t="1709884711871" class="icon" viewBox="0 0 1024 1024" version="1.1" xmlns="http://www.w3.org/2000/svg"
     p-id="12022" width="200" height="200">
    <path d="M273.066667 1024h477.866666c150.755556 0 273.066667-122.311111 273.066667-273.066667V273.066667C1024 122.311111 901.688889 0 750.933333 0H273.066667C122.311111 0 0 122.311111 0 273.066667v477.866666c0 150.755556 122.311111 273.066667 273.066667 273.066667z"
          fill="#FF8585" p-id="12023"></path>
    <path d="M607.0272 637.212444c-33.792 31.175111-68.266667 59.960889-101.831111 85.447112 2.275556 0.113778 4.551111 0.227556 6.826667 0.227555 103.879111-0.113778 188.074667-77.596444 188.188444-173.056 0-2.048 0-4.209778-0.113778-6.257778-27.761778 30.833778-59.164444 62.464-93.070222 93.639111zM778.296889 305.117867c26.055111 24.007111 16.725333 67.925333-28.330667 134.257777-36.977778 54.385778-94.435556 118.442667-161.905778 180.337778-67.470222 62.008889-137.102222 114.801778-196.266666 148.821334-45.624889 26.168889-81.464889 39.253333-108.316445 39.253333-13.994667 0.568889-27.648-4.209778-37.660444-13.312-26.168889-23.893333-16.839111-67.811556 28.216889-134.144 16.839111-24.462222 35.157333-48.014222 54.840889-70.542222-15.132444-58.481778 3.754667-119.921778 49.948444-162.360889 46.193778-42.439111 113.095111-59.847111 176.583111-45.966222 24.576-17.976889 50.289778-34.816 76.8-50.289778 72.248889-41.528889 119.921778-49.948444 146.090667-26.055111z m-39.367111 36.181333c-10.353778 0.341333-38.456889 7.509333-90.680889 39.139556-11.491556 7.054222-23.552 14.791111-35.84 23.210666 15.701333 9.102222 29.809778 20.252444 41.984 33.109334-37.546667 46.307556-78.734222 89.998222-123.335111 130.616888-44.145778 40.96-91.704889 78.848-141.994667 113.322667-14.108444-11.264-26.168889-24.234667-36.067555-38.570667-9.216 11.264-17.635556 22.300444-25.258667 32.995556-34.474667 47.900444-42.325333 73.841778-42.666667 83.285333 10.353778-0.341333 38.456889-7.509333 90.680889-39.139555 53.020444-32.199111 114.915556-79.985778 174.307556-134.485334 59.392-54.499556 111.274667-111.388444 146.318222-160.199111 34.360889-48.014222 42.211556-73.841778 42.552889-83.285333zM337.191822 376.832c0 6.826667 6.030222 12.401778 13.425778 12.401778 7.395556 0 13.425778-5.575111 13.425778-12.401778 0.113778-34.133333 30.151111-61.781333 67.242666-61.781333 7.509333 0 13.539556-5.575111 13.539556-12.401778 0-6.826667-6.030222-12.288-13.539556-12.288-37.091556-0.113778-67.128889-27.761778-67.242666-61.781333 0-6.826667-6.030222-12.401778-13.425778-12.401778-7.395556 0-13.425778 5.575111-13.425778 12.401778 0 34.019556-30.151111 61.667556-67.242666 61.781333-7.395556 0-13.425778 5.461333-13.425778 12.288 0 6.826667 6.030222 12.401778 13.425778 12.401778 37.091556 0 67.242667 27.648 67.242666 61.781333zM700.2112 710.496711c-14.791111 0-26.851556 11.036444-26.851556 24.689778s12.060444 24.689778 26.851556 24.689778c14.904889 0 26.965333-11.036444 26.965333-24.689778s-12.060444-24.689778-26.965333-24.689778zM243.029333 512.773689c-14.791111 0-26.851556 11.036444-26.851555 24.689778s12.060444 24.689778 26.851555 24.689777c14.904889 0 26.965333-11.036444 26.965334-24.689777s-12.060444-24.689778-26.965334-24.689778zM780.891022 488.049778c-14.791111 0-26.851556 11.036444-26.851555 24.689778s12.060444 24.689778 26.851555 24.689777c14.904889 0 26.965333-11.036444 26.965334-24.689777s-12.060444-24.689778-26.965334-24.689778z"
          fill="#FFFFFF" p-id="12024"></path>
</svg>