<?xml version="1.0" standalone="no"?><!DOCTYPE svg PUBLIC "-//W3C//DTD SVG 1.1//EN"
        "http://www.w3.org/Graphics/SVG/1.1/DTD/svg11.dtd">
<svg t="1709882358595" class="icon" viewBox="0 0 1024 1024" version="1.1" xmlns="http://www.w3.org/2000/svg" p-id="7148"
     width="200" height="200">
    <path d="M362.3936 217.1392c-23.3472-2.56-58.368 5.9392-77.8752 18.944L35.4816 402.2784C15.9232 415.2832 0 445.2352 0 468.6848v512.5632c0 23.552 19.2 42.752 42.6496 42.752h938.6496a42.8544 42.8544 0 0 0 42.7008-42.752V468.6848c0-23.4496-15.9744-53.3504-35.4816-66.4064l-171.8272-114.688c-19.5584-13.0048-54.5792-25.8048-77.9264-28.416l-376.32-41.984z"
          fill="#FFE08A" p-id="7149"></path>
    <path d="M738.816 259.1744l-188.2112-20.992-188.2112-20.992c-23.296-2.6112-58.3168 5.888-77.8752 18.8928L160 319.232 35.5328 402.2784c-11.8784 7.936-22.4256 22.1184-28.8768 37.2736l504.576 332.1856 505.7536-333.1584c-6.5024-14.848-16.8448-28.5184-28.4672-36.3008l-85.9136-57.344-85.9648-57.344c-19.5072-13.0048-54.528-25.8048-77.824-28.416z"
          fill="#F6BB42" p-id="7150"></path>
    <path d="M192 853.0944H106.6496a21.3504 21.3504 0 1 1 0-42.7008H192a21.3504 21.3504 0 0 1 0 42.7008z m170.6496 85.504h-256a21.3504 21.3504 0 0 1 0-42.752h256a21.3504 21.3504 0 1 1 0 42.7008zM896 518.2464l-384.9728 253.44L128 519.4752V0h597.2992L896 170.9056z"
          fill="#FFFFFF" p-id="7151"></path>
    <path d="M725.2992 170.9056H896L725.2992 0z" fill="#F0F1F3" p-id="7152"></path>
    <path d="M558.7456 750.336a63.744 63.744 0 0 0-95.3856 0l-16.3328 21.3504v21.3504a64 64 0 1 0 128 0v-21.3504l-16.2816-21.3504z"
          fill="#DA4453" p-id="7153"></path>
    <path d="M447.0272 771.7376a64 64 0 1 0 128.1024 0.0512 64 64 0 0 0-128.1024-0.0512zM600.8832 205.312c-34.816 0-66.304 14.336-88.8832 37.376a124.5184 124.5184 0 0 0-213.3504 87.1936c0 142.3872 213.3504 266.9568 213.3504 266.9568s213.2992-124.5696 213.2992-266.9568a124.5184 124.5184 0 0 0-124.416-124.5696z"
          fill="#ED5564" p-id="7154"></path>
    <path d="M600.8832 205.312c-7.2704 0-14.3872 0.6144-21.2992 1.8432a124.6208 124.6208 0 0 1 103.0656 122.7264c0 114.4832-137.9328 217.4976-192 253.44 13.1584 8.704 21.3504 13.5168 21.3504 13.5168s213.2992-124.5696 213.2992-266.9568a124.5184 124.5184 0 0 0-124.416-124.5696z"
          fill="#FFFFFF" opacity=".2" p-id="7155"></path>
</svg>