<?xml version="1.0" encoding="UTF-8"?>
<!DOCTYPE svg PUBLIC "-//W3C//DTD SVG 1.1//EN" "http://www.w3.org/Graphics/SVG/1.1/DTD/svg11.dtd">
<svg xmlns="http://www.w3.org/2000/svg" version="1.1" width="252px" height="264px"
     style="shape-rendering:geometricPrecision; text-rendering:geometricPrecision; image-rendering:optimizeQuality; fill-rule:evenodd; clip-rule:evenodd"
>
    <g>
        <path style="opacity:0.976" fill="#ffa9a9"
              d="M 251.5,47.5 C 251.5,74.5 251.5,101.5 251.5,128.5C 216.542,92.7439 176.542,85.9105 131.5,108C 121.816,113.512 113.482,120.679 106.5,129.5C 87.1753,130.333 67.8419,130.833 48.5,131C 40.0589,134.047 37.8922,139.547 42,147.5C 43.214,149.049 44.714,150.215 46.5,151C 61.4963,151.5 76.4963,151.667 91.5,151.5C 89.3628,159.386 87.5294,167.386 86,175.5C 85.501,179.821 85.3343,184.154 85.5,188.5C 73.8286,188.333 62.1619,188.5 50.5,189C 41.4441,190.698 38.2775,195.865 41,204.5C 43.1005,207.467 45.9338,209.3 49.5,210C 62.4957,210.5 75.4957,210.667 88.5,210.5C 94.2185,232.532 106.218,250.198 124.5,263.5C 99.5,263.5 74.5,263.5 49.5,263.5C 21.8028,254.96 5.6361,236.294 1,207.5C 0.333333,157.833 0.333333,108.167 1,58.5C 7.07465,25.092 26.908,5.92529 60.5,1C 104.833,0.333333 149.167,0.333333 193.5,1C 222.515,4.52261 241.848,20.0226 251.5,47.5 Z M 48.5,62.5 C 78.8352,62.3334 109.168,62.5 139.5,63C 146.34,65.5126 148.84,70.346 147,77.5C 145.833,80 144,81.8333 141.5,83C 109.833,83.6667 78.1667,83.6667 46.5,83C 39.2791,78.8504 37.9458,73.3504 42.5,66.5C 44.2903,64.6843 46.2903,63.3509 48.5,62.5 Z"/>
    </g>
    <g>
        <path style="opacity:0.968" fill="#ffa9a9"
              d="M 251.5,175.5 C 251.5,185.167 251.5,194.833 251.5,204.5C 239.418,245.066 212.085,264.233 169.5,262C 129.82,254.319 108.486,230.319 105.5,190C 108.486,149.681 129.82,125.681 169.5,118C 212.085,115.767 239.418,134.934 251.5,175.5 Z M 212.5,160.5 C 220.489,160.313 223.322,163.979 221,171.5C 205.471,186.695 190.304,202.195 175.5,218C 174.167,218.667 172.833,218.667 171.5,218C 161.266,208.436 151.766,198.269 143,187.5C 142.664,180.892 145.831,178.392 152.5,180C 159.136,185.634 165.469,191.634 171.5,198C 172.5,198.667 173.5,198.667 174.5,198C 187.115,185.216 199.782,172.716 212.5,160.5 Z"/>
    </g>
</svg>
