<?xml version="1.0" encoding="UTF-8"?>
<!DOCTYPE svg PUBLIC "-//W3C//DTD SVG 1.1//EN" "http://www.w3.org/Graphics/SVG/1.1/DTD/svg11.dtd">
<svg xmlns="http://www.w3.org/2000/svg" version="1.1" width="176px" height="176px"
     style="shape-rendering:geometricPrecision; text-rendering:geometricPrecision; image-rendering:optimizeQuality; fill-rule:evenodd; clip-rule:evenodd"
>
    <g>
        <path style="opacity:0.942" fill="#ff5893"
              d="M 39.5,-0.5 C 72.1667,-0.5 104.833,-0.5 137.5,-0.5C 156.133,3.14103 168.799,13.8077 175.5,31.5C 175.5,68.8333 175.5,106.167 175.5,143.5C 169.445,160.89 157.445,171.557 139.5,175.5C 105.5,175.5 71.5,175.5 37.5,175.5C 19.292,171.461 7.45863,160.461 2,142.5C 0.367412,107.873 0.0340785,73.2058 1,38.5C 4.67911,16.3215 17.5124,3.32154 39.5,-0.5 Z M 38.5,12.5 C 72.1683,12.3333 105.835,12.5 139.5,13C 154.329,17.8273 162.495,27.994 164,43.5C 164.667,72.8333 164.667,102.167 164,131.5C 162.167,150.667 151.667,161.167 132.5,163C 103.167,163.667 73.8333,163.667 44.5,163C 28.5813,161.417 18.4147,152.917 14,137.5C 13.3333,104.167 13.3333,70.8333 14,37.5C 17.6741,24.6601 25.8408,16.3267 38.5,12.5 Z"/>
    </g>
    <g>
        <path style="opacity:0.959" fill="#ff5893"
              d="M 102.5,26.5 C 110.624,26.3104 116.79,29.6437 121,36.5C 126.389,28.7081 133.556,25.8748 142.5,28C 151.396,37.3859 151.729,47.0526 143.5,57C 136.833,61.6667 130.167,66.3333 123.5,71C 121.365,71.6347 119.365,71.3014 117.5,70C 109.093,64.8874 101.593,58.7207 95,51.5C 92.6028,44.2026 93.2694,37.2026 97,30.5C 98.8121,29.0229 100.645,27.6896 102.5,26.5 Z"/>
    </g>
    <g>
        <path style="opacity:0.983" fill="#ff5893"
              d="M 55.5,59.5 C 69.8702,58.2694 81.0368,63.6028 89,75.5C 92.2696,81.0399 95.2696,86.7065 98,92.5C 109.426,80.2522 122.259,78.4188 136.5,87C 150.936,100.037 158.769,116.203 160,135.5C 157.891,146.946 151.391,154.779 140.5,159C 107.167,159.667 73.8333,159.667 40.5,159C 27.1655,154.382 19.1655,145.048 16.5,131C 18.2221,109.834 24.7221,90.3337 36,72.5C 41.1835,66.0051 47.6835,61.6718 55.5,59.5 Z"/>
    </g>
</svg>