<?xml version="1.0" encoding="UTF-8"?>
<!DOCTYPE svg PUBLIC "-//W3C//DTD SVG 1.1//EN" "http://www.w3.org/Graphics/SVG/1.1/DTD/svg11.dtd">
<svg xmlns="http://www.w3.org/2000/svg" version="1.1" width="164px" height="164px"
     style="shape-rendering:geometricPrecision; text-rendering:geometricPrecision; image-rendering:optimizeQuality; fill-rule:evenodd; clip-rule:evenodd"
>
    <g>
        <path style="opacity:0.993" fill="#f4ece4"
              d="M 97.5,0.5 C 113.837,0.333403 130.17,0.500069 146.5,1C 154.104,3.10837 159.771,7.60837 163.5,14.5C 163.5,53.8333 163.5,93.1667 163.5,132.5C 159.156,143.674 151.156,150.841 139.5,154C 101.5,154.667 63.5,154.667 25.5,154C 16.3514,151.848 9.51805,146.681 5,138.5C 5.59957,142.529 7.4329,146.029 10.5,149C 15.2934,153.445 20.9601,156.112 27.5,157C 63.5,157.667 99.5,157.667 135.5,157C 146.366,155.99 154.533,150.823 160,141.5C 157.303,151.845 150.47,157.678 139.5,159C 100.833,159.667 62.1667,159.667 23.5,159C 18.7698,157.422 14.4364,155.088 10.5,152C 7.1637,147.817 4.49703,143.317 2.5,138.5C 1.50667,101.239 1.17333,63.9061 1.5,26.5C 2.33239,56.9973 2.83239,87.6639 3,118.5C 3.55153,124.263 5.7182,129.263 9.5,133.5C 8.47498,133.897 8.30831,134.563 9,135.5C 13.469,141.107 19.3023,144.273 26.5,145C 64.8333,145.667 103.167,145.667 141.5,145C 148.99,143.26 154.657,139.094 158.5,132.5C 158.376,131.893 158.043,131.56 157.5,131.5C 159.887,127.506 161.387,123.172 162,118.5C 162.5,101.837 162.667,85.17 162.5,68.5C 159.219,68.5797 156.219,67.913 153.5,66.5C 156.525,66.8769 159.525,67.0435 162.5,67C 160.76,65.483 159.094,63.983 157.5,62.5C 138.202,42.7014 118.702,23.0347 99,3.5C 98.4867,2.47344 97.9867,1.47344 97.5,0.5 Z"/>
    </g>
    <g>
        <path style="opacity:1" fill="#fef4ec"
              d="M 96.5,0.5 C 96.5,12.5 96.5,24.5 96.5,36.5C 80.3246,36.1703 64.3246,36.5036 48.5,37.5C 46.3531,38.9321 46.0198,40.7655 47.5,43C 63.8299,43.4999 80.1633,43.6666 96.5,43.5C 98.609,48.1824 101.609,52.349 105.5,56C 85.9957,56.1682 66.6623,56.6682 47.5,57.5C 46.3143,58.9613 46.3143,60.2946 47.5,61.5C 47.5,62.1667 47.8333,62.5 48.5,62.5C 75.3282,63.4979 102.328,63.8312 129.5,63.5C 137.5,64.5 145.5,65.5 153.5,66.5C 156.219,67.913 159.219,68.5797 162.5,68.5C 162.667,85.17 162.5,101.837 162,118.5C 161.387,123.172 159.887,127.506 157.5,131.5C 152.211,137.647 145.545,141.48 137.5,143C 100.5,143.667 63.5,143.667 26.5,143C 19.5827,141.879 13.9161,138.713 9.5,133.5C 5.7182,129.263 3.55153,124.263 3,118.5C 2.83239,87.6639 2.33239,56.9973 1.5,26.5C 3.03003,13.5872 10.03,5.42057 22.5,2C 47.1148,0.538642 71.7815,0.0386421 96.5,0.5 Z"/>
    </g>
    <g>
        <path style="opacity:1" fill="#e4dbd4"
              d="M 96.5,0.5 C 96.8333,0.5 97.1667,0.5 97.5,0.5C 97.9867,1.47344 98.4867,2.47344 99,3.5C 118.702,23.0347 138.202,42.7014 157.5,62.5C 141.773,59.321 126.106,55.821 110.5,52C 107.098,50.6001 104.264,48.4335 102,45.5C 100.391,42.5932 98.5576,39.9266 96.5,37.5C 80.5,37.5 64.5,37.5 48.5,37.5C 64.3246,36.5036 80.3246,36.1703 96.5,36.5C 96.5,24.5 96.5,12.5 96.5,0.5 Z"/>
    </g>
    <g>
        <path style="opacity:1" fill="#586174"
              d="M 24.5,29.5 C 28.5164,28.8999 32.0164,29.8999 35,32.5C 36.3301,40.1672 33.1634,43.6672 25.5,43C 20.6216,38.7931 20.2883,34.2931 24.5,29.5 Z"/>
    </g>
    <g>
        <path style="opacity:1" fill="#ff7422"
              d="M 48.5,37.5 C 64.5,37.5 80.5,37.5 96.5,37.5C 96.5,39.5 96.5,41.5 96.5,43.5C 80.1633,43.6666 63.8299,43.4999 47.5,43C 46.0198,40.7655 46.3531,38.9321 48.5,37.5 Z"/>
    </g>
    <g>
        <path style="opacity:1" fill="#d6c5ba"
              d="M 96.5,37.5 C 98.5576,39.9266 100.391,42.5932 102,45.5C 104.264,48.4335 107.098,50.6001 110.5,52C 126.106,55.821 141.773,59.321 157.5,62.5C 159.094,63.983 160.76,65.483 162.5,67C 159.525,67.0435 156.525,66.8769 153.5,66.5C 145.5,65.5 137.5,64.5 129.5,63.5C 127.898,61.9261 125.898,61.2594 123.5,61.5C 121.139,61.3259 118.806,60.9926 116.5,60.5C 114.485,59.0762 112.152,58.4095 109.5,58.5C 88.909,57.5122 68.2423,57.1789 47.5,57.5C 66.6623,56.6682 85.9957,56.1682 105.5,56C 101.609,52.349 98.609,48.1824 96.5,43.5C 96.5,41.5 96.5,39.5 96.5,37.5 Z"/>
    </g>
    <g>
        <path style="opacity:1" fill="#fe6502"
              d="M 47.5,57.5 C 68.2423,57.1789 88.909,57.5122 109.5,58.5C 111.214,59.7384 113.214,60.405 115.5,60.5C 93.0061,61.4975 70.3395,61.8308 47.5,61.5C 46.3143,60.2946 46.3143,58.9613 47.5,57.5 Z"/>
    </g>
    <g>
        <path style="opacity:1" fill="#e19d71"
              d="M 109.5,58.5 C 112.152,58.4095 114.485,59.0762 116.5,60.5C 116.167,60.5 115.833,60.5 115.5,60.5C 113.214,60.405 111.214,59.7384 109.5,58.5 Z"/>
    </g>
    <g>
        <path style="opacity:1" fill="#fe8131"
              d="M 115.5,60.5 C 115.833,60.5 116.167,60.5 116.5,60.5C 118.806,60.9926 121.139,61.3259 123.5,61.5C 98.6722,62.4977 73.6722,62.831 48.5,62.5C 47.8333,62.5 47.5,62.1667 47.5,61.5C 70.3395,61.8308 93.0061,61.4975 115.5,60.5 Z"/>
    </g>
    <g>
        <path style="opacity:1" fill="#fdc8a5"
              d="M 123.5,61.5 C 125.898,61.2594 127.898,61.9261 129.5,63.5C 102.328,63.8312 75.3282,63.4979 48.5,62.5C 73.6722,62.831 98.6722,62.4977 123.5,61.5 Z"/>
    </g>
    <g>
        <path style="opacity:1" fill="#565f72"
              d="M 25.5,62.5 C 36.0999,63.2539 38.0999,67.7539 31.5,76C 24.3823,76.8824 21.2156,73.7158 22,66.5C 23.3756,65.2949 24.5423,63.9616 25.5,62.5 Z"/>
    </g>
    <g>
        <path style="opacity:1" fill="#ff7422"
              d="M 47.5,76.5 C 79.1684,76.3334 110.835,76.5 142.5,77C 143.833,78.6667 143.833,80.3333 142.5,82C 110.833,82.6667 79.1667,82.6667 47.5,82C 46.2475,80.1722 46.2475,78.3388 47.5,76.5 Z"/>
    </g>
    <g>
        <path style="opacity:1" fill="#545d71"
              d="M 24.5,93.5 C 30.1268,92.1601 33.7934,94.1601 35.5,99.5C 34.387,105.893 30.7204,107.893 24.5,105.5C 20.619,101.542 20.619,97.5424 24.5,93.5 Z"/>
    </g>
    <g>
        <path style="opacity:1" fill="#ff7423"
              d="M 47.5,95.5 C 79.1684,95.3334 110.835,95.5 142.5,96C 143.833,97.6667 143.833,99.3333 142.5,101C 110.833,101.667 79.1667,101.667 47.5,101C 46.2475,99.1722 46.2475,97.3388 47.5,95.5 Z"/>
    </g>
    <g>
        <path style="opacity:1" fill="#e6ded7"
              d="M 157.5,131.5 C 158.043,131.56 158.376,131.893 158.5,132.5C 154.657,139.094 148.99,143.26 141.5,145C 103.167,145.667 64.8333,145.667 26.5,145C 19.3023,144.273 13.469,141.107 9,135.5C 8.30831,134.563 8.47498,133.897 9.5,133.5C 13.9161,138.713 19.5827,141.879 26.5,143C 63.5,143.667 100.5,143.667 137.5,143C 145.545,141.48 152.211,137.647 157.5,131.5 Z"/>
    </g>
    <g>
        <path style="opacity:1" fill="#e8e0d9"
              d="M 159.5,133.5 C 159.367,137.927 157.367,141.76 153.5,145C 148.533,147.964 143.2,149.964 137.5,151C 99.8333,151.667 62.1667,151.667 24.5,151C 15.597,148.926 9.26365,143.759 5.5,135.5C 8.30103,137.778 11.301,140.612 14.5,144C 17.3821,145.608 20.3821,146.941 23.5,148C 61.1667,148.667 98.8333,148.667 136.5,148C 147.145,147.849 154.812,143.016 159.5,133.5 Z"/>
    </g>
    <g>
        <path style="opacity:0.851" fill="#e6ded7"
              d="M 163.5,132.5 C 163.5,135.833 163.5,139.167 163.5,142.5C 159.359,154.415 151.026,161.415 138.5,163.5C 101.5,163.5 64.5,163.5 27.5,163.5C 12.866,161.533 4.5327,153.199 2.5,138.5C 4.49703,143.317 7.1637,147.817 10.5,152C 14.4364,155.088 18.7698,157.422 23.5,159C 62.1667,159.667 100.833,159.667 139.5,159C 150.47,157.678 157.303,151.845 160,141.5C 154.533,150.823 146.366,155.99 135.5,157C 99.5,157.667 63.5,157.667 27.5,157C 20.9601,156.112 15.2934,153.445 10.5,149C 7.4329,146.029 5.59957,142.529 5,138.5C 9.51805,146.681 16.3514,151.848 25.5,154C 63.5,154.667 101.5,154.667 139.5,154C 151.156,150.841 159.156,143.674 163.5,132.5 Z"/>
    </g>
</svg>
